<svg xmlns="http://www.w3.org/2000/svg" width="420" height="260" viewBox="0 0 420 260" role="img" aria-labelledby="title desc">
  <title id="title">macOS planned platform icon</title>
  <desc id="desc">A clay-styled macOS desktop card for the SUPERIOR roadmap.</desc>
  <defs>
    <linearGradient id="screen" x1="0" x2="1" y1="0" y2="1">
      <stop offset="0" stop-color="#b9dceb"/>
      <stop offset="1" stop-color="#7db7d4"/>
    </linearGradient>
    <filter id="shadow" x="-20%" y="-20%" width="140%" height="140%">
      <feDropShadow dx="0" dy="12" stdDeviation="10" flood-color="#2a1b12" flood-opacity="0.32"/>
    </filter>
  </defs>
  <rect width="420" height="260" rx="34" fill="#2d241f"/>
  <rect x="26" y="24" width="368" height="212" rx="28" fill="#efd1a0" filter="url(#shadow)"/>
  <rect x="74" y="54" width="272" height="140" rx="22" fill="#3a2b22"/>
  <rect x="91" y="71" width="238" height="96" rx="13" fill="url(#screen)"/>
  <path d="M132 150 C157 120 174 132 194 104 C209 133 237 112 285 150 Z" fill="#7f9b64" opacity="0.86"/>
  <circle cx="275" cy="95" r="16" fill="#fff4dc" opacity="0.88"/>
  <path d="M188 194 h44 l9 26 h-62 z" fill="#3a2b22"/>
  <rect x="154" y="215" width="112" height="12" rx="6" fill="#3a2b22"/>
  <rect x="142" y="202" width="136" height="22" rx="11" fill="#7e3329" opacity="0.95"/>
  <text x="210" y="218" text-anchor="middle" font-family="Arial, sans-serif" font-size="15" font-weight="900" letter-spacing="3" fill="#ffe6c0">MAC PLANNED</text>
</svg>
