<svg xmlns="http://www.w3.org/2000/svg" width="420" height="260" viewBox="0 0 420 260" role="img" aria-labelledby="title desc">
  <title id="title">Windows alpha platform icon</title>
  <desc id="desc">A clay-styled Windows desktop card for the SUPERIOR alpha.</desc>
  <defs>
    <linearGradient id="card" x1="0" x2="1" y1="0" y2="1">
      <stop offset="0" stop-color="#f1d3a0"/>
      <stop offset="1" stop-color="#c28c55"/>
    </linearGradient>
    <filter id="shadow" x="-20%" y="-20%" width="140%" height="140%">
      <feDropShadow dx="0" dy="12" stdDeviation="10" flood-color="#2a1b12" flood-opacity="0.32"/>
    </filter>
  </defs>
  <rect width="420" height="260" rx="34" fill="#2d241f"/>
  <rect x="26" y="24" width="368" height="212" rx="28" fill="url(#card)" filter="url(#shadow)"/>
  <rect x="58" y="52" width="304" height="134" rx="15" fill="#3a2b22"/>
  <g transform="translate(126 76)">
    <path d="M0 0 L70 -9 V48 H0 Z" fill="#80b3d1"/>
    <path d="M82 -11 L160 -22 V48 H82 Z" fill="#6c9fbf"/>
    <path d="M0 61 H70 V119 L0 109 Z" fill="#7f9b64"/>
    <path d="M82 61 H160 V132 L82 121 Z" fill="#d8a849"/>
    <path d="M75 -10 V128" stroke="#2d241f" stroke-width="8" opacity="0.68"/>
    <path d="M0 55 H160" stroke="#2d241f" stroke-width="8" opacity="0.68"/>
  </g>
  <rect x="121" y="202" width="178" height="22" rx="11" fill="#7e3329" opacity="0.95"/>
  <text x="210" y="218" text-anchor="middle" font-family="Arial, sans-serif" font-size="15" font-weight="900" letter-spacing="3" fill="#ffe6c0">WINDOWS ALPHA</text>
</svg>
